Coordinates
version=1
nRows=8
nColumns=40
inDegrees=yes

Units are S.I. units (second, meters, Newtons, ...)
Angles are in degrees.

endheader
time	pelvis_tilt	pelvis_list	pelvis_rotation	pelvis_tx	pelvis_ty	pelvis_tz	hip_flexion_r	hip_adduction_r	hip_rotation_r	knee_angle_r	knee_angle_r_beta	ankle_angle_r	subtalar_angle_r	mtp_angle_r	hip_flexion_l	hip_adduction_l	hip_rotation_l	knee_angle_l	knee_angle_l_beta	ankle_angle_l	subtalar_angle_l	mtp_angle_l	lumbar_extension	lumbar_bending	lumbar_rotation	arm_flex_r	arm_add_r	arm_rot_r	elbow_flex_r	pro_sup_r	wrist_flex_r	wrist_dev_r	arm_flex_l	arm_add_l	arm_rot_l	elbow_flex_l	pro_sup_l	wrist_flex_l	wrist_dev_l
     12.69500000	     -4.91450950	     -6.91163333	      2.69425783	      1.05513917	      0.92953868	      0.50738639	      9.77400247	      5.48907422	    -17.40344907	     13.46073987	     13.46073987	     10.42494142	      0.86660625	     -3.18038091	     34.97321660	    -14.54547915	      2.30032049	     58.66990881	     58.66990881	     10.65035210	    -18.91754005	     15.25139037	    -10.79256983	      7.48154384	      3.61706684	     24.28859450	    -15.12409398	     -6.50880435	     59.52324039	     45.29252396	      0.00000000	      0.00000000	      4.64758193	     -7.04529600	      1.02605621	     23.38457621	     46.45298642	      0.00000000	      0.00000000
     12.70657143	     -4.94464387	     -6.78424480	      2.96435644	      1.05424197	      0.92975373	      0.50724025	      8.79667046	      5.52431482	    -17.39124665	     12.65106461	     12.65106461	     10.64773846	      0.94064976	     -3.29697039	     35.73805715	    -14.10488365	      2.16074429	     55.53137447	     55.53137447	     10.70872666	    -18.88068676	     15.70844687	    -10.74202546	      7.32987214	      3.65353562	     26.39974070	    -15.32968891	     -6.34542866	     61.93214606	     45.21549964	      0.00000000	      0.00000000	      3.05996139	     -7.18948145	      1.09543425	     22.32437551	     46.40797237	      0.00000000	      0.00000000
     12.71814286	     -5.04856103	     -6.74090133	      3.20985002	      1.05331023	      0.92957204	      0.50696332	      7.88066783	      5.63386275	    -17.44723256	     11.77910873	     11.77910873	     10.66304088	      1.09627240	     -3.92664688	     36.45223830	    -13.66979190	      2.14482969	     52.16089510	     52.16089510	     10.64460082	    -18.72883165	     15.65631063	    -10.82758838	      7.24224246	      4.05091506	     27.70740376	    -16.29006227	     -5.55176867	     66.30920153	     45.05835239	      0.00000000	      0.00000000	      1.56352438	     -7.25438968	      1.31258913	     21.54806486	     46.31880760	      0.00000000	      0.00000000
     12.72971429	     -5.14640128	     -6.67328740	      3.45332194	      1.05250834	      0.92927879	      0.50647331	      6.98279751	      5.69728807	    -17.46144523	     10.99808829	     10.99808829	     10.90948023	      1.33003398	     -4.19501145	     36.91663666	    -13.11913540	      2.21315056	     48.44781085	     48.44781085	     10.39694875	    -18.47076781	     15.34931202	    -10.75896524	      7.15120081	      4.02205243	     29.70817165	    -16.49577492	     -5.63256120	     69.09100820	     44.99168525	      0.00000000	      0.00000000	     -0.16728102	     -7.42947365	      1.52143951	     21.09151619	     46.22462928	      0.00000000	      0.00000000
     12.74128571	     -5.22985787	     -6.58467731	      3.68842036	      1.05180717	      0.92882100	      0.50577423	      6.09959638	      5.71066957	    -17.52823320	     10.30840291	     10.30840291	     11.23145379	      1.56183753	     -4.32582254	     37.18862171	    -12.47015217	      2.41913227	     44.55988025	     44.55988025	     10.21310109	    -17.99985172	     15.21282247	    -10.69944320	      7.07121489	      3.90760405	     31.87539655	    -16.52212350	     -5.66761133	     71.58770532	     44.92692696	      0.00000000	      0.00000000	     -1.95436472	     -7.59047986	      1.62494275	     20.66711480	     46.15639223	      0.00000000	      0.00000000
     12.75285714	     -5.51274533	     -6.71476264	      3.86188935	      1.05104504	      0.92768065	      0.50509979	      5.68078219	      5.87855436	    -17.56694382	     10.07525828	     10.07525828	     11.65460065	      1.58495459	     -4.49284798	     37.69519678	    -12.08720640	      2.68962878	     40.77702400	     40.77702400	     10.38226058	    -16.75345493	     15.41573293	    -10.29114841	      7.20521652	      4.37871611	     33.96641245	    -17.14295729	     -5.93306691	     72.81924553	     44.90651903	      0.00000000	      0.00000000	     -3.42780443	     -7.67315802	      1.61069307	     20.26110120	     46.12552089	      0.00000000	      0.00000000
     12.76442857	     -5.43777818	     -6.37164638	      4.04741939	      1.05080760	      0.92724306	      0.50408035	      4.48506007	      5.63231392	    -17.58697120	      9.22689416	      9.22689416	     12.04239765	      2.06214984	     -4.59111374	     37.31893268	    -11.23002663	      2.79776096	     36.56666012	     36.56666012	     10.18386461	    -15.56217178	     15.17761889	    -10.45109978	      6.83115258	      3.85328859	     36.04205831	    -16.62698297	     -5.64965821	     76.16635068	     44.80028215	      0.00000000	      0.00000000	     -5.37663363	     -7.85833396	      1.66255494	     20.01523127	     46.06103580	      0.00000000	      0.00000000
     12.77600000	     -5.48715194	     -6.46674046	      4.25213591	      1.05068360	      0.92601676	      0.50298388	      3.62053045	      5.76216698	    -17.98435697	      8.72671293	      8.72671293	     12.47066997	      2.82785603	     -4.97502482	     37.13639680	    -10.84723967	      3.05578308	     32.46750900	     32.46750900	      9.08439532	    -14.01480763	     12.10397577	    -10.46978764	      7.01986779	      4.30935007	     37.04703153	    -17.69899062	     -5.14268645	     81.43801796	     44.66020039	      0.00000000	      0.00000000	     -7.58440606	     -8.14360283	      2.25929118	     21.85693331	     45.82720942	      0.00000000	      0.00000000
